<?xml version="1.0" encoding="UTF-8" standalone="no"?><svg xmlns="http://www.w3.org/2000/svg" xmlns:xlink="http://www.w3.org/1999/xlink" contentScriptType="application/ecmascript" contentStyleType="text/css" height="863px" preserveAspectRatio="none" style="width:3385px;height:863px;" version="1.1" viewBox="0 0 3385 863" width="3385px" zoomAndPan="magnify"><defs><filter height="300%" id="f1dgaissuu3hoi" width="300%" x="-1" y="-1"><feGaussianBlur result="blurOut" stdDeviation="2.0"/><feColorMatrix in="blurOut" result="blurOut2" type="matrix" values="0 0 0 0 0 0 0 0 0 0 0 0 0 0 0 0 0 0 .4 0"/><feOffset dx="4.0" dy="4.0" in="blurOut2" result="blurOut3"/><feBlend in="SourceGraphic" in2="blurOut3" mode="normal"/></filter></defs><g><!--cluster Controller on Motor Car--><polygon fill="#FFFFFF" filter="url(#f1dgaissuu3hoi)" points="22,98,215,98,222,120.2969,1997,120.2969,1997,827,22,827,22,98" style="stroke: #000000; stroke-width: 1.5;"/><line style="stroke: #000000; stroke-width: 1.5;" x1="22" x2="222" y1="120.2969" y2="120.2969"/><text fill="#000000" font-family="sans-serif" font-size="14" font-weight="bold" lengthAdjust="spacingAndGlyphs" textLength="187" x="26" y="112.9951">Controller on Motor Car</text><!--cluster Measument Cart--><polygon fill="#FFFFFF" filter="url(#f1dgaissuu3hoi)" points="2286,380,2421,380,2428,402.2969,3363,402.2969,3363,851,2286,851,2286,380" style="stroke: #000000; stroke-width: 1.5;"/><line style="stroke: #000000; stroke-width: 1.5;" x1="2286" x2="2428" y1="402.2969" y2="402.2969"/><text fill="#000000" font-family="sans-serif" font-size="14" font-weight="bold" lengthAdjust="spacingAndGlyphs" textLength="129" x="2290" y="394.9951">Measument Cart</text><!--cluster Solenoid Power--><rect fill="#FFFFFF" filter="url(#f1dgaissuu3hoi)" height="313" style="stroke: #000000; stroke-width: 1.5;" width="358" x="2310" y="514"/><path d="M2444,515 L2444,523.2969 L2434,533.2969 L2310,533.2969 " fill="none" style="stroke: #000000; stroke-width: 1.5;"/><text fill="#000000" font-family="sans-serif" font-size="14" font-weight="bold" lengthAdjust="spacingAndGlyphs" textLength="124" x="2313" y="527.9951">Solenoid Power</text><!--entity PS--><rect fill="#FEFECE" filter="url(#f1dgaissuu3hoi)" height="36.2969" style="stroke: #A80036; stroke-width: 1.5;" width="112" x="1728" y="133"/><rect fill="#FEFECE" height="5" style="stroke: #A80036; stroke-width: 1.5;" width="10" x="1723" y="138"/><rect fill="#FEFECE" height="5" style="stroke: #A80036; stroke-width: 1.5;" width="10" x="1723" y="159.2969"/><text fill="#000000" font-family="sans-serif" font-size="14" lengthAdjust="spacingAndGlyphs" textLength="92" x="1738" y="155.9951">Power Switch</text><path d="M1569.5,138.5 L1569.5,163.6328 A0,0 0 0 0 1569.5,163.6328 L1692.5,163.6328 A0,0 0 0 0 1692.5,163.6328 L1692.5,156.5 L1727.92,151 L1692.5,148.5 L1692.5,148.5 L1682.5,138.5 L1569.5,138.5 A0,0 0 0 0 1569.5,138.5 " fill="#FBFB77" filter="url(#f1dgaissuu3hoi)" style="stroke: #A80036; stroke-width: 1.0;"/><path d="M1682.5,138.5 L1682.5,148.5 L1692.5,148.5 L1682.5,138.5 " fill="#FBFB77" style="stroke: #A80036; stroke-width: 1.0;"/><text fill="#000000" font-family="sans-serif" font-size="13" lengthAdjust="spacingAndGlyphs" textLength="102" x="1575.5" y="155.5669">With 5A Breaker</text><!--entity InputProt--><rect fill="#FEFECE" filter="url(#f1dgaissuu3hoi)" height="36.2969" style="stroke: #A80036; stroke-width: 1.5;" width="140" x="1841" y="263.5"/><rect fill="#FEFECE" height="5" style="stroke: #A80036; stroke-width: 1.5;" width="10" x="1836" y="268.5"/><rect fill="#FEFECE" height="5" style="stroke: #A80036; stroke-width: 1.5;" width="10" x="1836" y="289.7969"/><text fill="#000000" font-family="sans-serif" font-size="14" lengthAdjust="spacingAndGlyphs" textLength="120" x="1851" y="286.4951">Battery Regulator</text><path d="M1570.5,246 L1570.5,316.5313 A0,0 0 0 0 1570.5,316.5313 L1805.5,316.5313 A0,0 0 0 0 1805.5,316.5313 L1805.5,285.5 L1840.59,281.5 L1805.5,277.5 L1805.5,256 L1795.5,246 L1570.5,246 A0,0 0 0 0 1570.5,246 " fill="#FBFB77" filter="url(#f1dgaissuu3hoi)" style="stroke: #A80036; stroke-width: 1.0;"/><path d="M1795.5,246 L1795.5,256 L1805.5,256 L1795.5,246 " fill="#FBFB77" style="stroke: #A80036; stroke-width: 1.0;"/><text fill="#000000" font-family="sans-serif" font-size="13" lengthAdjust="spacingAndGlyphs" textLength="214" x="1576.5" y="263.0669">Regulator with Reverse Protection</text><text fill="#000000" font-family="sans-serif" font-size="13" lengthAdjust="spacingAndGlyphs" textLength="90" x="1576.5" y="278.1997">Input : 10-15V</text><text fill="#000000" font-family="sans-serif" font-size="13" lengthAdjust="spacingAndGlyphs" textLength="102" x="1576.5" y="293.3325">Output : 8 - 12V</text><text fill="#000000" font-family="sans-serif" font-size="13" lengthAdjust="spacingAndGlyphs" textLength="172" x="1576.5" y="308.4653">Expected operating ranges</text><!--entity uC1--><rect fill="#FEFECE" filter="url(#f1dgaissuu3hoi)" height="36.2969" style="stroke: #A80036; stroke-width: 1.5;" width="191" x="1076.5" y="662"/><rect fill="#FEFECE" height="5" style="stroke: #A80036; stroke-width: 1.5;" width="10" x="1071.5" y="667"/><rect fill="#FEFECE" height="5" style="stroke: #A80036; stroke-width: 1.5;" width="10" x="1071.5" y="688.2969"/><text fill="#000000" font-family="sans-serif" font-size="14" lengthAdjust="spacingAndGlyphs" textLength="171" x="1086.5" y="684.9951">Controller Arudrino Mega</text><!--entity LCD--><rect fill="#FEFECE" filter="url(#f1dgaissuu3hoi)" height="36.2969" style="stroke: #A80036; stroke-width: 1.5;" width="119" x="1717.5" y="415"/><rect fill="#FEFECE" height="5" style="stroke: #A80036; stroke-width: 1.5;" width="10" x="1712.5" y="420"/><rect fill="#FEFECE" height="5" style="stroke: #A80036; stroke-width: 1.5;" width="10" x="1712.5" y="441.2969"/><text fill="#000000" font-family="sans-serif" font-size="14" lengthAdjust="spacingAndGlyphs" textLength="99" x="1727.5" y="437.9951">Controller LCD</text><!--entity B1--><rect fill="#FEFECE" filter="url(#f1dgaissuu3hoi)" height="36.2969" style="stroke: #A80036; stroke-width: 1.5;" width="130" x="414" y="775"/><rect fill="#FEFECE" height="5" style="stroke: #A80036; stroke-width: 1.5;" width="10" x="409" y="780"/><rect fill="#FEFECE" height="5" style="stroke: #A80036; stroke-width: 1.5;" width="10" x="409" y="801.2969"/><text fill="#000000" font-family="sans-serif" font-size="14" lengthAdjust="spacingAndGlyphs" textLength="110" x="424" y="797.9951">Safty BTN (RED)</text><!--entity B2--><rect fill="#FEFECE" filter="url(#f1dgaissuu3hoi)" height="36.2969" style="stroke: #A80036; stroke-width: 1.5;" width="136" x="737" y="775"/><rect fill="#FEFECE" height="5" style="stroke: #A80036; stroke-width: 1.5;" width="10" x="732" y="780"/><rect fill="#FEFECE" height="5" style="stroke: #A80036; stroke-width: 1.5;" width="10" x="732" y="801.2969"/><text fill="#000000" font-family="sans-serif" font-size="14" lengthAdjust="spacingAndGlyphs" textLength="116" x="747" y="797.9951">Raise BTN (GRN)</text><!--entity B3--><rect fill="#FEFECE" filter="url(#f1dgaissuu3hoi)" height="36.2969" style="stroke: #A80036; stroke-width: 1.5;" width="135" x="1068.5" y="775"/><rect fill="#FEFECE" height="5" style="stroke: #A80036; stroke-width: 1.5;" width="10" x="1063.5" y="780"/><rect fill="#FEFECE" height="5" style="stroke: #A80036; stroke-width: 1.5;" width="10" x="1063.5" y="801.2969"/><text fill="#000000" font-family="sans-serif" font-size="14" lengthAdjust="spacingAndGlyphs" textLength="115" x="1078.5" y="797.9951">Lower BTN (BLU)</text><!--entity B4--><rect fill="#FEFECE" filter="url(#f1dgaissuu3hoi)" height="36.2969" style="stroke: #A80036; stroke-width: 1.5;" width="154" x="1390" y="775"/><rect fill="#FEFECE" height="5" style="stroke: #A80036; stroke-width: 1.5;" width="10" x="1385" y="780"/><rect fill="#FEFECE" height="5" style="stroke: #A80036; stroke-width: 1.5;" width="10" x="1385" y="801.2969"/><text fill="#000000" font-family="sans-serif" font-size="14" lengthAdjust="spacingAndGlyphs" textLength="134" x="1400" y="797.9951">Release BTN (GRN)</text><!--entity B5--><rect fill="#FEFECE" filter="url(#f1dgaissuu3hoi)" height="36.2969" style="stroke: #A80036; stroke-width: 1.5;" width="133" x="1731.5" y="775"/><rect fill="#FEFECE" height="5" style="stroke: #A80036; stroke-width: 1.5;" width="10" x="1726.5" y="780"/><rect fill="#FEFECE" height="5" style="stroke: #A80036; stroke-width: 1.5;" width="10" x="1726.5" y="801.2969"/><text fill="#000000" font-family="sans-serif" font-size="14" lengthAdjust="spacingAndGlyphs" textLength="113" x="1741.5" y="797.9951">Force BTN (BLU)</text><!--entity SD--><rect fill="#FEFECE" filter="url(#f1dgaissuu3hoi)" height="36.2969" style="stroke: #A80036; stroke-width: 1.5;" width="130" x="1166" y="415"/><rect fill="#FEFECE" height="5" style="stroke: #A80036; stroke-width: 1.5;" width="10" x="1161" y="420"/><rect fill="#FEFECE" height="5" style="stroke: #A80036; stroke-width: 1.5;" width="10" x="1161" y="441.2969"/><text fill="#000000" font-family="sans-serif" font-size="14" lengthAdjust="spacingAndGlyphs" textLength="110" x="1176" y="437.9951">SD Card Reader</text><!--entity Dial--><rect fill="#FEFECE" filter="url(#f1dgaissuu3hoi)" height="36.2969" style="stroke: #A80036; stroke-width: 1.5;" width="78" x="412" y="415"/><rect fill="#FEFECE" height="5" style="stroke: #A80036; stroke-width: 1.5;" width="10" x="407" y="420"/><rect fill="#FEFECE" height="5" style="stroke: #A80036; stroke-width: 1.5;" width="10" x="407" y="441.2969"/><text fill="#000000" font-family="sans-serif" font-size="14" lengthAdjust="spacingAndGlyphs" textLength="58" x="422" y="437.9951">Dial BTN</text><!--entity uC2--><rect fill="#FEFECE" filter="url(#f1dgaissuu3hoi)" height="36.2969" style="stroke: #A80036; stroke-width: 1.5;" width="243" x="2719.5" y="415"/><rect fill="#FEFECE" height="5" style="stroke: #A80036; stroke-width: 1.5;" width="10" x="2714.5" y="420"/><rect fill="#FEFECE" height="5" style="stroke: #A80036; stroke-width: 1.5;" width="10" x="2714.5" y="441.2969"/><text fill="#000000" font-family="sans-serif" font-size="14" lengthAdjust="spacingAndGlyphs" textLength="223" x="2729.5" y="437.9951">Measurment Cart Arudrino Mega</text><!--entity LCA--><rect fill="#FEFECE" filter="url(#f1dgaissuu3hoi)" height="36.2969" style="stroke: #A80036; stroke-width: 1.5;" width="144" x="3203" y="549"/><rect fill="#FEFECE" height="5" style="stroke: #A80036; stroke-width: 1.5;" width="10" x="3198" y="554"/><rect fill="#FEFECE" height="5" style="stroke: #A80036; stroke-width: 1.5;" width="10" x="3198" y="575.2969"/><text fill="#000000" font-family="sans-serif" font-size="14" lengthAdjust="spacingAndGlyphs" textLength="124" x="3213" y="571.9951">Load Cell Amplifier</text><!--entity LC--><rect fill="#FEFECE" filter="url(#f1dgaissuu3hoi)" height="36.2969" style="stroke: #A80036; stroke-width: 1.5;" width="82" x="3142" y="662"/><rect fill="#FEFECE" height="5" style="stroke: #A80036; stroke-width: 1.5;" width="10" x="3137" y="667"/><rect fill="#FEFECE" height="5" style="stroke: #A80036; stroke-width: 1.5;" width="10" x="3137" y="688.2969"/><text fill="#000000" font-family="sans-serif" font-size="14" lengthAdjust="spacingAndGlyphs" textLength="62" x="3152" y="684.9951">Load Cell</text><!--entity Gauge--><rect fill="#FEFECE" filter="url(#f1dgaissuu3hoi)" height="36.2969" style="stroke: #A80036; stroke-width: 1.5;" width="166" x="2824" y="549"/><rect fill="#FEFECE" height="5" style="stroke: #A80036; stroke-width: 1.5;" width="10" x="2819" y="554"/><rect fill="#FEFECE" height="5" style="stroke: #A80036; stroke-width: 1.5;" width="10" x="2819" y="575.2969"/><text fill="#000000" font-family="sans-serif" font-size="14" lengthAdjust="spacingAndGlyphs" textLength="146" x="2834" y="571.9951">Gauge Measurement</text><!--entity Boost--><rect fill="#FEFECE" filter="url(#f1dgaissuu3hoi)" height="36.2969" style="stroke: #A80036; stroke-width: 1.5;" width="133" x="2518.5" y="549"/><rect fill="#FEFECE" height="5" style="stroke: #A80036; stroke-width: 1.5;" width="10" x="2513.5" y="554"/><rect fill="#FEFECE" height="5" style="stroke: #A80036; stroke-width: 1.5;" width="10" x="2513.5" y="575.2969"/><text fill="#000000" font-family="sans-serif" font-size="14" lengthAdjust="spacingAndGlyphs" textLength="113" x="2528.5" y="571.9951">Boost Converter</text><path d="M2326.5,554.5 L2326.5,579.6328 A0,0 0 0 0 2326.5,579.6328 L2483.5,579.6328 A0,0 0 0 0 2483.5,579.6328 L2483.5,572.5 L2518.16,567 L2483.5,564.5 L2483.5,564.5 L2473.5,554.5 L2326.5,554.5 A0,0 0 0 0 2326.5,554.5 " fill="#FBFB77" filter="url(#f1dgaissuu3hoi)" style="stroke: #A80036; stroke-width: 1.0;"/><path d="M2473.5,554.5 L2473.5,564.5 L2483.5,564.5 L2473.5,554.5 " fill="#FBFB77" style="stroke: #A80036; stroke-width: 1.0;"/><text fill="#000000" font-family="sans-serif" font-size="13" lengthAdjust="spacingAndGlyphs" textLength="136" x="2332.5" y="571.5669">12V to 24V converter</text><!--entity Relay--><rect fill="#FEFECE" filter="url(#f1dgaissuu3hoi)" height="36.2969" style="stroke: #A80036; stroke-width: 1.5;" width="129" x="2522.5" y="662"/><rect fill="#FEFECE" height="5" style="stroke: #A80036; stroke-width: 1.5;" width="10" x="2517.5" y="667"/><rect fill="#FEFECE" height="5" style="stroke: #A80036; stroke-width: 1.5;" width="10" x="2517.5" y="688.2969"/><text fill="#000000" font-family="sans-serif" font-size="14" lengthAdjust="spacingAndGlyphs" textLength="109" x="2532.5" y="684.9951">Solenoid Relays</text><!--entity Lift--><rect fill="#FEFECE" filter="url(#f1dgaissuu3hoi)" height="36.2969" style="stroke: #A80036; stroke-width: 1.5;" width="103" x="2381.5" y="775"/><rect fill="#FEFECE" height="5" style="stroke: #A80036; stroke-width: 1.5;" width="10" x="2376.5" y="780"/><rect fill="#FEFECE" height="5" style="stroke: #A80036; stroke-width: 1.5;" width="10" x="2376.5" y="801.2969"/><text fill="#000000" font-family="sans-serif" font-size="14" lengthAdjust="spacingAndGlyphs" textLength="83" x="2391.5" y="797.9951">Lift Solenoid</text><!--entity Force--><rect fill="#FEFECE" filter="url(#f1dgaissuu3hoi)" height="36.2969" style="stroke: #A80036; stroke-width: 1.5;" width="123" x="2523.5" y="775"/><rect fill="#FEFECE" height="5" style="stroke: #A80036; stroke-width: 1.5;" width="10" x="2518.5" y="780"/><rect fill="#FEFECE" height="5" style="stroke: #A80036; stroke-width: 1.5;" width="10" x="2518.5" y="801.2969"/><text fill="#000000" font-family="sans-serif" font-size="14" lengthAdjust="spacingAndGlyphs" textLength="103" x="2533.5" y="797.9951">Force Solenoid</text><!--entity Key--><ellipse cx="1356" cy="21.5" fill="#FEFECE" filter="url(#f1dgaissuu3hoi)" rx="8" ry="8" style="stroke: #A80036; stroke-width: 2.0;"/><text fill="#000000" font-family="sans-serif" font-size="14" lengthAdjust="spacingAndGlyphs" textLength="25" x="1343.5" y="51.4951">Key</text><!--entity Battery--><ellipse cx="1871" cy="21.5" fill="#FEFECE" filter="url(#f1dgaissuu3hoi)" rx="8" ry="8" style="stroke: #A80036; stroke-width: 2.0;"/><text fill="#000000" font-family="sans-serif" font-size="14" lengthAdjust="spacingAndGlyphs" textLength="120" x="1811" y="51.4951">Motor Car Battery</text><path d="M1683.5,9 L1683.5,34.1328 A0,0 0 0 0 1683.5,34.1328 L1826.5,34.1328 A0,0 0 0 0 1826.5,34.1328 L1826.5,27 L1861.98,21.5 L1826.5,19 L1826.5,19 L1816.5,9 L1683.5,9 A0,0 0 0 0 1683.5,9 " fill="#FBFB77" filter="url(#f1dgaissuu3hoi)" style="stroke: #A80036; stroke-width: 1.0;"/><path d="M1816.5,9 L1816.5,19 L1826.5,19 L1816.5,9 " fill="#FBFB77" style="stroke: #A80036; stroke-width: 1.0;"/><text fill="#000000" font-family="sans-serif" font-size="13" lengthAdjust="spacingAndGlyphs" textLength="122" x="1689.5" y="26.0669">External to System</text><!--link Key to Key--><path d="M1365.07,18.626 C1380.26,15.21 1400,16.168 1400,21.5 C1400,26.832 1380.26,27.79 1365.07,24.374 " fill="none" id="Key-Key" style="stroke: #A80036; stroke-width: 1.0;"/><text fill="#000000" font-family="sans-serif" font-size="13" lengthAdjust="spacingAndGlyphs" textLength="114" x="1406" y="26.0669">Power Connection</text><!--link Key to Key--><path d="M1365.22,18.436 C1405.97,8.596 1526,9.617 1526,21.5 C1526,33.383 1405.97,34.404 1365.22,24.564 " fill="none" id="Key-Key" style="stroke: #A80036; stroke-width: 1.0; stroke-dasharray: 7.0,7.0;"/><text fill="#000000" font-family="sans-serif" font-size="13" lengthAdjust="spacingAndGlyphs" textLength="109" x="1532" y="26.0669">Logic Connection</text><!--link Battery to PS--><path d="M1861.78,26.777 C1838.95,37.374 1781.59,64.065 1781,65 C1768.04,85.455 1772.91,114.586 1778.09,132.882 " fill="none" id="Battery-PS" style="stroke: #A80036; stroke-width: 1.0;"/><text fill="#000000" font-family="sans-serif" font-size="13" lengthAdjust="spacingAndGlyphs" textLength="148" x="1782" y="78.0669">Battery Positive (~12v)</text><!--link Battery to InputProt--><path d="M1880.11,25.391 C1894.8,30.609 1923.27,43.138 1935,65 C1970.5,131.182 1936.09,225.087 1919.18,263.314 " fill="none" id="Battery-InputProt" style="stroke: #A80036; stroke-width: 1.0;"/><text fill="#000000" font-family="sans-serif" font-size="13" lengthAdjust="spacingAndGlyphs" textLength="132" x="1952" y="155.5669">Battery Negitive (0v)</text><!--link PS to InputProt--><path d="M1778.22,169.091 C1774.68,182.805 1772.32,202.01 1781,216 C1790.63,231.523 1831.05,250.154 1864.3,263.392 " fill="none" id="PS-InputProt" style="stroke: #A80036; stroke-width: 1.0;"/><text fill="#000000" font-family="sans-serif" font-size="13" lengthAdjust="spacingAndGlyphs" textLength="148" x="1782" y="212.0669">Battery Positive (~12v)</text><!--link uC2 to uC1--><path d="M2719.38,436.485 C2586.25,440.635 2366.82,451.68 2180,481 C2133.89,488.237 2116.57,479.719 2078,506 C2021.34,544.604 2048.95,598.731 1989,632 C1927.35,666.212 1470.1,675.627 1267.81,678.13 " fill="none" id="uC2-uC1" style="stroke: #A80036; stroke-width: 1.0; stroke-dasharray: 7.0,7.0;"/><text fill="#000000" font-family="sans-serif" font-size="13" lengthAdjust="spacingAndGlyphs" textLength="83" x="2079" y="571.5669">14-15(TX-RX)</text><!--link uC2 to uC1--><path d="M2719.47,436.834 C2564.39,442.373 2306.43,458.622 2225,506 C2187.35,527.904 2202.18,559.314 2167,585 C2113.99,623.705 2091.46,619.643 2027,632 C1884.01,659.412 1459.29,672.391 1267.67,676.976 " fill="none" id="uC2-uC1" style="stroke: #A80036; stroke-width: 1.0; stroke-dasharray: 7.0,7.0;"/><text fill="#000000" font-family="sans-serif" font-size="13" lengthAdjust="spacingAndGlyphs" textLength="83" x="2226" y="571.5669">15-14(RX-TX)</text><!--link InputProt to uC1--><path d="M1908.31,299.88 C1898.74,360.894 1865.89,562.836 1847,585 C1809.31,629.225 1781.63,618.965 1725,632 C1567.49,668.259 1378.95,677.18 1267.69,679.022 " fill="none" id="InputProt-uC1" style="stroke: #A80036; stroke-width: 1.0;"/><text fill="#000000" font-family="sans-serif" font-size="13" lengthAdjust="spacingAndGlyphs" textLength="23" x="1877" y="494.0669">12v</text><!--link InputProt to uC1--><path d="M1914.7,299.802 C1924.59,351.237 1945.87,504.604 1868,585 C1836.05,617.981 1820.19,619.533 1776,632 C1683.12,658.203 1413.06,670.99 1267.54,676.131 " fill="none" id="InputProt-uC1" style="stroke: #A80036; stroke-width: 1.0;"/><text fill="#000000" font-family="sans-serif" font-size="13" lengthAdjust="spacingAndGlyphs" textLength="30" x="1919" y="494.0669">GND</text><!--link Dial to uC1--><path d="M411.746,435.766 C328.128,440.464 137.035,456.504 100,506 C78.965,534.113 82.1639,554.757 100,585 C121.929,622.184 143.469,620.222 185,632 C269.119,655.856 845.242,671.524 1076.37,676.915 " fill="none" id="Dial-uC1" style="stroke: #A80036; stroke-width: 1.0;"/><text fill="#000000" font-family="sans-serif" font-size="13" lengthAdjust="spacingAndGlyphs" textLength="49" x="101" y="571.5669">C(GND)</text><!--link Dial to uC1--><path d="M411.849,439.969 C351.568,450.12 240.877,472.913 221,506 C190.221,557.235 213.393,607.701 268,632 C340.33,664.185 858.862,674.822 1076.36,677.893 " fill="none" id="Dial-uC1" style="stroke: #A80036; stroke-width: 1.0;"/><text fill="#000000" font-family="sans-serif" font-size="13" lengthAdjust="spacingAndGlyphs" textLength="11" x="222" y="571.5669">+</text><!--link Dial to uC1--><path d="M411.972,441.157 C376.915,449.877 327.461,468.385 304,506 C285.419,535.791 286.56,554.527 304,585 C324.483,620.791 344.548,619.996 384,632 C510.77,670.573 895.645,677.69 1076.36,678.863 " fill="none" id="Dial-uC1" style="stroke: #A80036; stroke-width: 1.0; stroke-dasharray: 7.0,7.0;"/><text fill="#000000" font-family="sans-serif" font-size="13" lengthAdjust="spacingAndGlyphs" textLength="44" x="305" y="571.5669">A15(A)</text><!--link Dial to uC1--><path d="M440.31,451.059 C423.442,480.367 395.009,541.333 420,585 C440.483,620.791 460.61,619.794 500,632 C604.799,664.476 916.951,674.594 1076.22,677.683 " fill="none" id="Dial-uC1" style="stroke: #A80036; stroke-width: 1.0; stroke-dasharray: 7.0,7.0;"/><text fill="#000000" font-family="sans-serif" font-size="13" lengthAdjust="spacingAndGlyphs" textLength="44" x="421" y="571.5669">A14(B)</text><!--link Dial to uC1--><path d="M456.733,451.127 C467.707,481.633 494.359,545.845 536,585 C570.9,617.817 586.819,619.264 633,632 C713.93,654.319 944.628,668.384 1076.49,674.841 " fill="none" id="Dial-uC1" style="stroke: #A80036; stroke-width: 1.0; stroke-dasharray: 7.0,7.0;"/><text fill="#000000" font-family="sans-serif" font-size="13" lengthAdjust="spacingAndGlyphs" textLength="61" x="537" y="571.5669">A13(BTN)</text><!--link Dial to uC1--><path d="M490.107,447.144 C522.438,459.217 568.476,479.284 603,506 C639.183,534 634.9,554.497 669,585 C697.205,610.23 704.407,619.146 740,632 C799.782,653.589 968.022,667.12 1076.05,673.848 " fill="none" id="Dial-uC1" style="stroke: #A80036; stroke-width: 1.0;"/><text fill="#000000" font-family="sans-serif" font-size="13" lengthAdjust="spacingAndGlyphs" textLength="35" x="670" y="571.5669">A9(R)</text><!--link Dial to uC1--><path d="M490.394,437.598 C543.895,444.038 640.783,461.342 710,506 C748.445,530.804 741.016,555.516 776,585 C807.826,611.823 817.719,618.24 857,632 C928.1,656.906 1012.75,668.615 1076.38,674.118 " fill="none" id="Dial-uC1" style="stroke: #A80036; stroke-width: 1.0;"/><text fill="#000000" font-family="sans-serif" font-size="13" lengthAdjust="spacingAndGlyphs" textLength="45" x="777" y="571.5669">A11(G)</text><!--link Dial to uC1--><path d="M490.129,436.207 C560.194,441.292 710.623,457.405 827,506 C884.221,529.894 889.416,552.136 942,585 C977.949,607.467 986.161,615.011 1025,632 C1051.88,643.758 1082.66,654.056 1109.08,661.993 " fill="none" id="Dial-uC1" style="stroke: #A80036; stroke-width: 1.0;"/><text fill="#000000" font-family="sans-serif" font-size="13" lengthAdjust="spacingAndGlyphs" textLength="44" x="943" y="571.5669">A10(B)</text><!--link SD to uC1--><path d="M1165.84,435.111 C1113.58,439.919 1043.48,456.072 1009,506 C989.049,534.892 992.911,553.792 1009,585 C1029.13,624.053 1073.1,648.017 1110.31,661.968 " fill="none" id="SD-uC1" style="stroke: #A80036; stroke-width: 1.0;"/><text fill="#000000" font-family="sans-serif" font-size="13" lengthAdjust="spacingAndGlyphs" textLength="30" x="1010" y="571.5669">GND</text><!--link SD to uC1--><path d="M1179.41,451.051 C1154,462.358 1125.72,479.995 1111,506 C1080.87,559.21 1130.25,629.917 1156.82,661.946 " fill="none" id="SD-uC1" style="stroke: #A80036; stroke-width: 1.0;"/><text fill="#000000" font-family="sans-serif" font-size="13" lengthAdjust="spacingAndGlyphs" textLength="17" x="1112" y="571.5669">5V</text><!--link SD to uC1--><path d="M1222.25,451.017 C1215.24,465.335 1205.67,486.532 1200,506 C1183.74,561.793 1176.16,630.634 1173.35,661.995 " fill="none" id="SD-uC1" style="stroke: #A80036; stroke-width: 1.0; stroke-dasharray: 7.0,7.0;"/><text fill="#000000" font-family="sans-serif" font-size="13" lengthAdjust="spacingAndGlyphs" textLength="44" x="1201" y="571.5669">53(CS)</text><!--link SD to uC1--><path d="M1238.23,451.327 C1249.09,480.008 1266.68,538.773 1250,585 C1238.7,616.317 1211.92,644.576 1192.9,661.75 " fill="none" id="SD-uC1" style="stroke: #A80036; stroke-width: 1.0; stroke-dasharray: 7.0,7.0;"/><text fill="#000000" font-family="sans-serif" font-size="13" lengthAdjust="spacingAndGlyphs" textLength="52" x="1258" y="571.5669">52(SCK)</text><!--link SD to uC1--><path d="M1264.19,451.184 C1284.09,463.49 1307.67,482.097 1319,506 C1334.04,537.729 1335.86,554.203 1319,585 C1298.41,622.597 1255.68,647.35 1221.56,661.972 " fill="none" id="SD-uC1" style="stroke: #A80036; stroke-width: 1.0; stroke-dasharray: 7.0,7.0;"/><text fill="#000000" font-family="sans-serif" font-size="13" lengthAdjust="spacingAndGlyphs" textLength="59" x="1332" y="571.5669">50(MOSI)</text><!--link SD to uC1--><path d="M1296.05,443.805 C1333.25,453.109 1376.96,471.146 1400,506 C1419.36,535.291 1419.04,555.5 1400,585 C1371.09,629.786 1316.38,653.243 1267.79,665.525 " fill="none" id="SD-uC1" style="stroke: #A80036; stroke-width: 1.0; stroke-dasharray: 7.0,7.0;"/><text fill="#000000" font-family="sans-serif" font-size="13" lengthAdjust="spacingAndGlyphs" textLength="59" x="1416" y="571.5669">51(MISO)</text><!--link LCD to uC1--><path d="M1749.19,451.048 C1685.14,489.526 1521.25,583.522 1372,632 C1335.36,643.9 1294.04,654.125 1258.51,661.969 " fill="none" id="LCD-uC1" style="stroke: #A80036; stroke-width: 1.0;"/><text fill="#000000" font-family="sans-serif" font-size="13" lengthAdjust="spacingAndGlyphs" textLength="30" x="1653" y="571.5669">GND</text><!--link LCD to uC1--><path d="M1772.54,451.315 C1763.34,483.318 1739.06,551.512 1692,585 C1625.29,632.472 1398.79,659.444 1267.77,671.423 " fill="none" id="LCD-uC1" style="stroke: #A80036; stroke-width: 1.0;"/><text fill="#000000" font-family="sans-serif" font-size="13" lengthAdjust="spacingAndGlyphs" textLength="15" x="1753" y="571.5669">5v</text><!--link LCD to uC1--><path d="M1783.06,451.066 C1792.67,481.476 1807.39,545.539 1777,585 C1716.44,663.632 1422.28,677.564 1267.57,679.348 " fill="none" id="LCD-uC1" style="stroke: #A80036; stroke-width: 1.0; stroke-dasharray: 7.0,7.0;"/><text fill="#000000" font-family="sans-serif" font-size="13" lengthAdjust="spacingAndGlyphs" textLength="41" x="1797" y="571.5669">18(TX)</text><!--link uC1 to B1--><path d="M1076.47,683.122 C868.62,688.207 391.97,702.588 368,728 C347.471,749.764 379.153,766.325 413.851,777.143 " fill="none" id="uC1-B1" style="stroke: #A80036; stroke-width: 1.0;"/><text fill="#000000" font-family="sans-serif" font-size="13" lengthAdjust="spacingAndGlyphs" textLength="30" x="369" y="741.0669">GND</text><!--link uC1 to B1--><path d="M1076.33,683.705 C882.827,689.644 461.438,705.141 440,728 C426.827,742.046 441.92,761.242 456.999,774.9388 " fill="none" id="uC1-B1" style="stroke: #A80036; stroke-width: 1.0;"/><text fill="#000000" font-family="sans-serif" font-size="13" lengthAdjust="spacingAndGlyphs" textLength="30" x="441" y="741.0669">GND</text><!--link uC1 to B1--><path d="M1076.16,682.682 C904.455,686.445 557.914,697.727 512,728 C495.823,738.666 487.138,759.878 482.803,774.9555 " fill="none" id="uC1-B1" style="stroke: #A80036; stroke-width: 1.0; stroke-dasharray: 7.0,7.0;"/><text fill="#000000" font-family="sans-serif" font-size="13" lengthAdjust="spacingAndGlyphs" textLength="52" x="513" y="741.0669">24(BTN)</text><!--link uC1 to B1--><path d="M1076.42,680.47 C967.35,681.891 784.365,690.471 632,728 C588.666,738.673 541.718,759.884 511.419,774.9589 " fill="none" id="uC1-B1" style="stroke: #A80036; stroke-width: 1.0; stroke-dasharray: 7.0,7.0;"/><text fill="#000000" font-family="sans-serif" font-size="13" lengthAdjust="spacingAndGlyphs" textLength="46" x="633" y="741.0669">25(LED</text><!--link uC1 to B2--><path d="M1076.47,683.646 C944.338,688.307 719.149,700.257 694,728 C674.578,749.425 703.506,765.594 736.686,776.3206 " fill="none" id="uC1-B2" style="stroke: #A80036; stroke-width: 1.0;"/><text fill="#000000" font-family="sans-serif" font-size="13" lengthAdjust="spacingAndGlyphs" textLength="30" x="695" y="741.0669">GND</text><!--link uC1 to B2--><path d="M1076.1,685.502 C962.594,691.833 786.296,705.218 766,728 C753.277,742.281 768.025,761.264 782.89,774.8398 " fill="none" id="uC1-B2" style="stroke: #A80036; stroke-width: 1.0;"/><text fill="#000000" font-family="sans-serif" font-size="13" lengthAdjust="spacingAndGlyphs" textLength="30" x="767" y="741.0669">GND</text><!--link uC1 to B2--><path d="M1076.38,684.786 C991.497,689.856 875.306,701.521 838,728 C822.301,739.143 813.548,760.04 809.065,774.9229 " fill="none" id="uC1-B2" style="stroke: #A80036; stroke-width: 1.0; stroke-dasharray: 7.0,7.0;"/><text fill="#000000" font-family="sans-serif" font-size="13" lengthAdjust="spacingAndGlyphs" textLength="52" x="839" y="741.0669">40(BTN)</text><!--link uC1 to B2--><path d="M1078.01,698.008 C1040.58,705.745 997.372,715.897 959,728 C917.582,741.063 871.829,760.791 841.041,774.8878 " fill="none" id="uC1-B2" style="stroke: #A80036; stroke-width: 1.0; stroke-dasharray: 7.0,7.0;"/><text fill="#000000" font-family="sans-serif" font-size="13" lengthAdjust="spacingAndGlyphs" textLength="51" x="960" y="741.0669">41(LED)</text><!--link uC1 to B3--><path d="M1076.26,692.818 C1056.26,699.885 1037.48,710.905 1025,728 C1008.14,751.086 1036.18,767.1207 1068.28,777.3667 " fill="none" id="uC1-B3" style="stroke: #A80036; stroke-width: 1.0;"/><text fill="#000000" font-family="sans-serif" font-size="13" lengthAdjust="spacingAndGlyphs" textLength="30" x="1026" y="741.0669">GND</text><!--link uC1 to B3--><path d="M1129.1,698.004 C1116.48,705.257 1104.14,715.093 1097,728 C1088.05,744.166 1101.03,762.089 1114.36,774.8462 " fill="none" id="uC1-B3" style="stroke: #A80036; stroke-width: 1.0;"/><text fill="#000000" font-family="sans-serif" font-size="13" lengthAdjust="spacingAndGlyphs" textLength="30" x="1098" y="741.0669">GND</text><!--link uC1 to B3--><path d="M1166.38,698.344 C1159.61,719.197 1148.33,753.979 1141.59,774.778 " fill="none" id="uC1-B3" style="stroke: #A80036; stroke-width: 1.0; stroke-dasharray: 7.0,7.0;"/><text fill="#000000" font-family="sans-serif" font-size="13" lengthAdjust="spacingAndGlyphs" textLength="52" x="1158" y="741.0669">36(BTN)</text><!--link uC1 to B3--><path d="M1198.19,698.243 C1213.75,710.749 1228.72,728.327 1219,745 C1211.41,758.019 1198.73,767.7208 1185.53,774.8191 " fill="none" id="uC1-B3" style="stroke: #A80036; stroke-width: 1.0; stroke-dasharray: 7.0,7.0;"/><text fill="#000000" font-family="sans-serif" font-size="13" lengthAdjust="spacingAndGlyphs" textLength="51" x="1224" y="741.0669">37(LED)</text><!--link uC1 to B4--><path d="M1217.45,698.1 C1272.88,718.959 1366.04,754.012 1421.5,774.8801 " fill="none" id="uC1-B4" style="stroke: #A80036; stroke-width: 1.0;"/><text fill="#000000" font-family="sans-serif" font-size="13" lengthAdjust="spacingAndGlyphs" textLength="30" x="1339" y="741.0669">GND</text><!--link uC1 to B4--><path d="M1267.63,694.593 C1303.29,701.765 1343.48,712.422 1378,728 C1404.37,739.898 1430.8,760.23 1447.92,774.7854 " fill="none" id="uC1-B4" style="stroke: #A80036; stroke-width: 1.0;"/><text fill="#000000" font-family="sans-serif" font-size="13" lengthAdjust="spacingAndGlyphs" textLength="30" x="1408" y="741.0669">GND</text><!--link uC1 to B4--><path d="M1267.71,686.839 C1336.15,692.916 1420.61,704.922 1447,728 C1460.41,739.725 1464.93,760.296 1466.4,774.9501 " fill="none" id="uC1-B4" style="stroke: #A80036; stroke-width: 1.0; stroke-dasharray: 7.0,7.0;"/><text fill="#000000" font-family="sans-serif" font-size="13" lengthAdjust="spacingAndGlyphs" textLength="52" x="1460" y="741.0669">28(BTN)</text><!--link uC1 to B4--><path d="M1267.56,680.314 C1359.32,681.94 1488.66,691.007 1521,728 C1534.68,743.65 1516.23,761.786 1497.27,774.7472 " fill="none" id="uC1-B4" style="stroke: #A80036; stroke-width: 1.0; stroke-dasharray: 7.0,7.0;"/><text fill="#000000" font-family="sans-serif" font-size="13" lengthAdjust="spacingAndGlyphs" textLength="51" x="1527" y="741.0669">29(LED)</text><!--link uC1 to B5--><path d="M1267.55,686.87 C1352.17,693.24 1478.71,705.638 1587,728 C1644.17,739.806 1708.1,760.257 1750.45,774.8644 " fill="none" id="uC1-B5" style="stroke: #A80036; stroke-width: 1.0;"/><text fill="#000000" font-family="sans-serif" font-size="13" lengthAdjust="spacingAndGlyphs" textLength="30" x="1653" y="741.0669">GND</text><!--link uC1 to B5--><path d="M1267.67,684.505 C1395.75,690.078 1615.66,702.984 1692,728 C1723.66,738.376 1755.84,759.649 1776.31,774.82 " fill="none" id="uC1-B5" style="stroke: #A80036; stroke-width: 1.0;"/><text fill="#000000" font-family="sans-serif" font-size="13" lengthAdjust="spacingAndGlyphs" textLength="30" x="1731" y="741.0669">GND</text><!--link uC1 to B5--><path d="M1267.72,683.18 C1426.31,687.578 1730.12,699.624 1770,728 C1785.22,738.828 1792.26,759.789 1795.45,774.7727 " fill="none" id="uC1-B5" style="stroke: #A80036; stroke-width: 1.0; stroke-dasharray: 7.0,7.0;"/><text fill="#000000" font-family="sans-serif" font-size="13" lengthAdjust="spacingAndGlyphs" textLength="52" x="1786" y="741.0669">32(BTN)</text><!--link uC1 to B5--><path d="M1267.84,680.608 C1444.79,680.894 1808.36,686.58 1847,728 C1860.94,742.94 1843.04,761.656 1825.09,774.9808 " fill="none" id="uC1-B5" style="stroke: #A80036; stroke-width: 1.0; stroke-dasharray: 7.0,7.0;"/><text fill="#000000" font-family="sans-serif" font-size="13" lengthAdjust="spacingAndGlyphs" textLength="51" x="1853" y="741.0669">33(LED)</text><!--link InputProt to uC2--><path d="M1981.28,293.798 C2143.14,319.817 2542.98,384.092 2734.89,414.942 " fill="none" id="InputProt-uC2" style="stroke: #A80036; stroke-width: 1.0;"/><text fill="#000000" font-family="sans-serif" font-size="13" lengthAdjust="spacingAndGlyphs" textLength="23" x="2405" y="360.0669">12v</text><!--link InputProt to uC2--><path d="M1981.04,289.167 C2082.11,299.223 2274.54,320 2437,347 C2554.02,366.448 2688.58,396.275 2769.1,414.934 " fill="none" id="InputProt-uC2" style="stroke: #A80036; stroke-width: 1.0;"/><text fill="#000000" font-family="sans-serif" font-size="13" lengthAdjust="spacingAndGlyphs" textLength="30" x="2528" y="360.0669">GND</text><!--link uC2 to LCA--><path d="M2925.3,451.063 C2958.66,458.792 2997.06,468.926 3031,481 C3047.67,486.931 3049.89,493.499 3067,498 C3113.98,510.357 3129.73,491.225 3176,506 C3205.1,515.292 3234.55,534.702 3253.67,548.939 " fill="none" id="uC2-LCA" style="stroke: #A80036; stroke-width: 1.0;"/><text fill="#000000" font-family="sans-serif" font-size="13" lengthAdjust="spacingAndGlyphs" textLength="30" x="3068" y="494.0669">GND</text><!--link uC2 to LCA--><path d="M2962.62,448.983 C3007.39,456.274 3058.1,466.65 3103,481 C3119.85,486.387 3122.24,492.316 3139,498 C3154.93,503.405 3160.37,499.777 3176,506 C3203.63,517.003 3232.41,535.337 3251.76,548.849 " fill="none" id="uC2-LCA" style="stroke: #A80036; stroke-width: 1.0;"/><text fill="#000000" font-family="sans-serif" font-size="13" lengthAdjust="spacingAndGlyphs" textLength="17" x="3140" y="494.0669">5V</text><!--link uC2 to LCA--><path d="M2962.56,437.572 C3024.26,442.88 3099.23,454.82 3162,481 C3200.29,496.97 3237.27,528.898 3257.98,548.755 " fill="none" id="uC2-LCA" style="stroke: #A80036; stroke-width: 1.0; stroke-dasharray: 7.0,7.0;"/><text fill="#000000" font-family="sans-serif" font-size="13" lengthAdjust="spacingAndGlyphs" textLength="50" x="3193" y="494.0669">18(CLK)</text><!--link uC2 to LCA--><path d="M2962.65,441.023 C3075.84,448.657 3230.27,462.314 3252,481 C3271.47,497.745 3275.29,529.119 3275.62,548.709 " fill="none" id="uC2-LCA" style="stroke: #A80036; stroke-width: 1.0; stroke-dasharray: 7.0,7.0;"/><text fill="#000000" font-family="sans-serif" font-size="13" lengthAdjust="spacingAndGlyphs" textLength="52" x="3265" y="494.0669">19(DAT)</text><!--link LCA to LC--><path d="M3215.51,585.11 C3201.5,592.067 3188.25,601.712 3180,615 C3171.32,628.986 3173.68,648.191 3177.21,661.906 " fill="none" id="LCA-LC" style="stroke: #A80036; stroke-width: 1.0; stroke-dasharray: 7.0,7.0;"/><text fill="#000000" font-family="sans-serif" font-size="13" lengthAdjust="spacingAndGlyphs" textLength="26" x="3181" y="628.0669">RED</text><!--link LCA to LC--><path d="M3260.62,585.344 C3243.34,606.197 3214.51,640.979 3197.27,661.778 " fill="none" id="LCA-LC" style="stroke: #A80036; stroke-width: 1.0; stroke-dasharray: 7.0,7.0;"/><text fill="#000000" font-family="sans-serif" font-size="13" lengthAdjust="spacingAndGlyphs" textLength="24" x="3235" y="628.0669">BLK</text><!--link LCA to LC--><path d="M3277.21,585.208 C3278.07,598.991 3277.17,618.23 3268,632 C3257.72,647.441 3240.58,658.29 3224.38,665.642 " fill="none" id="LCA-LC" style="stroke: #A80036; stroke-width: 1.0; stroke-dasharray: 7.0,7.0;"/><text fill="#000000" font-family="sans-serif" font-size="13" lengthAdjust="spacingAndGlyphs" textLength="28" x="3275" y="628.0669">WHT</text><!--link LCA to LC--><path d="M3202.86,580.351 C3136.69,592.026 3048.18,608.667 3043,615 C3013.23,651.412 3090.56,668.007 3141.81,674.824 " fill="none" id="LCA-LC" style="stroke: #A80036; stroke-width: 1.0; stroke-dasharray: 7.0,7.0;"/><text fill="#000000" font-family="sans-serif" font-size="13" lengthAdjust="spacingAndGlyphs" textLength="28" x="3044" y="628.0669">GRN</text><!--link LCA to LC--><path d="M3202.97,575.936 C3178.62,582.456 3153.86,594.146 3139,615 C3127.81,630.704 3142.85,648.833 3158.31,661.778 " fill="none" id="LCA-LC" style="stroke: #A80036; stroke-width: 1.0; stroke-dasharray: 7.0,7.0;"/><text fill="#000000" font-family="sans-serif" font-size="13" lengthAdjust="spacingAndGlyphs" textLength="25" x="3140" y="628.0669">YLW</text><!--link uC2 to Gauge--><path d="M2847.56,451.096 C2852.71,464.134 2860.29,482.439 2868,498 C2876.82,515.805 2888.27,535.418 2896.47,548.986 " fill="none" id="uC2-Gauge" style="stroke: #A80036; stroke-width: 1.0;"/><text fill="#000000" font-family="sans-serif" font-size="13" lengthAdjust="spacingAndGlyphs" textLength="30" x="2869" y="494.0669">GND</text><!--link uC2 to Gauge--><path d="M2874.95,451.176 C2886.23,458.705 2897.54,468.671 2904,481 C2915.17,502.32 2913.33,530.951 2910.52,548.938 " fill="none" id="uC2-Gauge" style="stroke: #A80036; stroke-width: 1.0;"/><text fill="#000000" font-family="sans-serif" font-size="13" lengthAdjust="spacingAndGlyphs" textLength="17" x="2911" y="494.0669">5V</text><!--link uC2 to Gauge--><path d="M2834.63,451.006 C2830.68,464.324 2827.49,483.036 2834,498 C2843.26,519.282 2862.83,536.915 2879.37,548.889 " fill="none" id="uC2-Gauge" style="stroke: #A80036; stroke-width: 1.0; stroke-dasharray: 7.0,7.0;"/><text fill="#000000" font-family="sans-serif" font-size="13" lengthAdjust="spacingAndGlyphs" textLength="17" x="2835" y="494.0669">A5</text><!--link uC2 to Relay--><path d="M2813.28,451.019 C2791.99,464.679 2762.37,484.987 2739,506 C2735.18,509.433 2639.55,618.833 2601.97,661.861 " fill="none" id="uC2-Relay" style="stroke: #A80036; stroke-width: 1.0;"/><text fill="#000000" font-family="sans-serif" font-size="13" lengthAdjust="spacingAndGlyphs" textLength="65" x="2740" y="571.5669">A0(5V ref)</text><!--link uC2 to Relay--><path d="M2929.06,451.146 C2959.31,461.705 2990.04,478.7 3008,506 C3027.3,535.333 3030.02,557.655 3008,585 C2907.28,710.061 2811.35,625.412 2655,662 C2653.93,662.25 2652.86,662.503 2651.78,662.758 " fill="none" id="uC2-Relay" style="stroke: #A80036; stroke-width: 1.0; stroke-dasharray: 7.0,7.0;"/><text fill="#000000" font-family="sans-serif" font-size="13" lengthAdjust="spacingAndGlyphs" textLength="17" x="3024" y="571.5669">A1</text><!--link uC2 to Relay--><path d="M2912.33,451.066 C2940.99,458.855 2974.04,469.029 3003,481 C3017.52,487.003 3020.08,490.707 3034,498 C3041.04,501.69 3045.82,499.237 3050,506 C3068.46,535.867 3066.81,554.177 3050,585 C3031.52,618.875 3013.47,619.406 2977,632 C2841.14,678.91 2796.68,637.834 2655,662 C2653.92,662.184 2652.83,662.376 2651.74,662.576 " fill="none" id="uC2-Relay" style="stroke: #A80036; stroke-width: 1.0; stroke-dasharray: 7.0,7.0;"/><text fill="#000000" font-family="sans-serif" font-size="13" lengthAdjust="spacingAndGlyphs" textLength="17" x="3064" y="571.5669">A2</text><!--link uC2 to Boost--><path d="M2719.29,444.495 C2667.68,451.505 2615.42,462.88 2598,481 C2580.72,498.972 2580.45,529.668 2582.36,548.839 " fill="none" id="uC2-Boost" style="stroke: #A80036; stroke-width: 1.0;"/><text fill="#000000" font-family="sans-serif" font-size="13" lengthAdjust="spacingAndGlyphs" textLength="30" x="2599" y="494.0669">GND</text><!--link uC2 to Boost--><path d="M2763.8,451.111 C2738.2,458.41 2710.11,468.247 2686,481 C2670.35,489.276 2668.61,494.684 2655,506 C2637.89,520.224 2618.73,536.691 2604.78,548.771 " fill="none" id="uC2-Boost" style="stroke: #A80036; stroke-width: 1.0;"/><text fill="#000000" font-family="sans-serif" font-size="13" lengthAdjust="spacingAndGlyphs" textLength="25" x="2687" y="494.0669">12V</text><!--link Boost to Relay--><path d="M2555.02,585.192 C2538.41,597.138 2522.65,614.081 2531,632 C2536.63,644.079 2547.06,654.156 2557.41,661.842 " fill="none" id="Boost-Relay" style="stroke: #A80036; stroke-width: 1.0;"/><text fill="#000000" font-family="sans-serif" font-size="13" lengthAdjust="spacingAndGlyphs" textLength="30" x="2532" y="628.0669">GND</text><!--link Boost to Relay--><path d="M2585.31,585.344 C2585.69,606.197 2586.31,640.979 2586.69,661.778 " fill="none" id="Boost-Relay" style="stroke: #A80036; stroke-width: 1.0;"/><text fill="#000000" font-family="sans-serif" font-size="13" lengthAdjust="spacingAndGlyphs" textLength="25" x="2588" y="628.0669">24V</text><!--link Relay to Lift--><path d="M2522.1,691.159 C2481.07,699.056 2433.51,711.456 2421,728 C2410.84,741.435 2416.57,760.912 2423.14,774.8457 " fill="none" id="Relay-Lift" style="stroke: #A80036; stroke-width: 1.0; stroke-dasharray: 7.0,7.0;"/><text fill="#000000" font-family="sans-serif" font-size="13" lengthAdjust="spacingAndGlyphs" textLength="26" x="2422" y="741.0669">RED</text><!--link Relay to Lift--><path d="M2562.4,698.057 C2549.69,706.92 2533.96,717.969 2520,728 C2498.22,743.645 2473.63,761.781 2456.16,774.7439 " fill="none" id="Relay-Lift" style="stroke: #A80036; stroke-width: 1.0; stroke-dasharray: 7.0,7.0;"/><text fill="#000000" font-family="sans-serif" font-size="13" lengthAdjust="spacingAndGlyphs" textLength="24" x="2521" y="741.0669">BLK</text><!--link Relay to Force--><path d="M2571.44,698.413 C2565.02,706.749 2558.31,717.245 2555,728 C2549.91,744.535 2559.52,762.271 2569.19,774.8686 " fill="none" id="Relay-Force" style="stroke: #A80036; stroke-width: 1.0; stroke-dasharray: 7.0,7.0;"/><text fill="#000000" font-family="sans-serif" font-size="13" lengthAdjust="spacingAndGlyphs" textLength="26" x="2556" y="741.0669">RED</text><!--link Relay to Force--><path d="M2587.2,698.116 C2587.3,711.007 2587.34,729.115 2587,745 C2586.79,754.798 2586.34,765.738 2585.92,774.5958 " fill="none" id="Relay-Force" style="stroke: #A80036; stroke-width: 1.0; stroke-dasharray: 7.0,7.0;"/><text fill="#000000" font-family="sans-serif" font-size="13" lengthAdjust="spacingAndGlyphs" textLength="24" x="2589" y="741.0669">BLK</text><!--
@startuml
interface "Key" as Key
Key - Key : Power Connection
Key . Key : Logic Connection

interface "Motor Car Battery" as Battery
note left of Battery : External to System

Package "Controller on Motor Car" {
  [Power Switch] as PS
  note left of PS : With 5A Breaker
  [Battery Regulator] as InputProt
  note left of InputProt
    Regulator with Reverse Protection
    Input : 10-15V
    Output : 8 - 12V
    Expected operating ranges
  end note
  [Controller Arudrino Mega] as uC1
  [Controller LCD] as LCD
  [Safty BTN (RED)] as B1
  [Raise BTN (GRN)] as B2
  [Lower BTN (BLU)] as B3
  [Release BTN (GRN)] as B4
  [Force BTN (BLU)] as B5
  [SD Card Reader] as SD
  [Dial BTN] as Dial
}

Package "Measument Cart" {
  [Measurment Cart Arudrino Mega] as uC2
  [Load Cell Amplifier] as LCA
  [Load Cell] as LC
  [Gauge Measurement] as Gauge
  frame "Solenoid Power" {
    [Boost Converter] as Boost
    note left of Boost : 12V to 24V converter
    [Solenoid Relays] as Relay
    [Lift Solenoid] as Lift
    [Force Solenoid] as Force
  }
}

Battery - - PS : Battery Positive (~12v)
Battery - - InputProt : Battery Negitive (0v)
PS - - InputProt : Battery Positive (~12v)

uC2 ... uC1 : 14-15(TX-RX)
uC2 ... uC1 : 15-14(RX-TX)


InputProt - - - - uC1 : (12v)
InputProt - - - - uC1 : (GND)

Dial - - - uC1 : C(GND)
Dial - - - uC1 : +
Dial ... uC1 : A15(A)
Dial ... uC1 : A14(B)
Dial ... uC1 : A13(BTN)
Dial - - - uC1 : A9(R)
Dial - - - uC1 : A11(G)
Dial - - - uC1 : A10(B)

SD - - - uC1 : (GND)
SD - - - uC1 : (5V)
SD ... uC1 : 53(CS)
SD ... uC1 : 52(SCK)
SD ... uC1 : 50(MOSI)
SD ... uC1 : 51(MISO)

LCD - - - uC1 : (GND)
LCD - - - uC1 : (5v)
LCD ... uC1 : 18(TX)

uC1 - - B1 : (GND)
uC1 - - B1 : (GND)
uC1 .. B1 : 24(BTN)
uC1 .. B1 : 25(LED

uC1 - - B2 : (GND)
uC1 - - B2 : (GND)
uC1 .. B2 : 40(BTN)
uC1 .. B2 : 41(LED)

uC1 - - B3 : (GND)
uC1 - - B3 : (GND)
uC1 .. B3 : 36(BTN)
uC1 .. B3 : 37(LED)

uC1 - - B4 : (GND)
uC1 - - B4 : (GND)
uC1 .. B4 : 28(BTN)
uC1 .. B4 : 29(LED)

uC1 - - B5 : (GND)
uC1 - - B5 : (GND)
uC1 .. B5 : 32(BTN)
uC1 .. B5 : 33(LED)

InputProt - uC2 : (12v)
InputProt - uC2 : (GND)

uC2 - - LCA : (GND)
uC2 - - LCA : (5V)
uC2 .. LCA : 18(CLK)
uC2 .. LCA : 19(DAT)

LCA .. LC : RED
LCA .. LC : BLK
LCA .. LC : WHT
LCA .. LC : GRN
LCA .. LC : YLW

uC2 - - Gauge : (GND)
uC2 - - Gauge : (5V)
uC2 .. Gauge : A5

uC2 - - - Relay : A0(5V ref)
uC2 ... Relay : A1
uC2 ... Relay : A2

uC2 - - Boost : (GND)
uC2 - - Boost : (12V)

Boost - - Relay : (GND)
Boost - - Relay : (24V)

Relay .. Lift : RED
Relay .. Lift : BLK

Relay .. Force : RED
Relay .. Force : BLK
@enduml

PlantUML version 1.2018.13beta11(Unknown compile time)
(GPL source distribution)
Java Runtime: Java(TM) SE Runtime Environment
JVM: Java HotSpot(TM) 64-Bit Server VM
Java Version: 1.7.0_25-b15
Operating System: Linux
Default Encoding: UTF-8
Language: en
Country: US
--></g></svg>